<svg width="87" height="30" viewBox="0 0 87 30" fill="none" xmlns="http://www.w3.org/2000/svg"><path d="M3.696 21.8l-2.232-2.448 11.052-9.864c.36-.336.756-.492 1.188-.468.456.024.84.216 1.152.576.336.36.492.756.468 1.188-.024.432-.216.816-.576 1.152L3.696 21.8zM2.004 29c-.528 0-.96-.156-1.296-.468-.312-.336-.468-.768-.468-1.296V2.648c0-.528.156-.948.468-1.26.336-.336.768-.504 1.296-.504s.948.168 1.26.504c.336.312.504.732.504 1.26v24.588c0 .528-.168.96-.504 1.296-.312.312-.732.468-1.26.468zm12.852-.18a1.714 1.714 0 01-1.296.396c-.456-.024-.84-.228-1.152-.612L5.1 19.568l2.52-2.376 7.488 9.216c.312.384.444.804.396 1.26-.024.432-.24.816-.648 1.152zm12.295.324c-1.752 0-3.324-.432-4.716-1.296-1.392-.888-2.496-2.076-3.312-3.564-.792-1.512-1.188-3.216-1.188-5.112s.432-3.6 1.296-5.112a9.761 9.761 0 013.564-3.564c1.512-.888 3.204-1.332 5.076-1.332 1.872 0 3.552.444 5.04 1.332a9.49 9.49 0 013.528 3.564c.888 1.512 1.332 3.216 1.332 5.112h-1.404c0 1.896-.408 3.6-1.224 5.112a9.373 9.373 0 01-3.276 3.564c-1.392.864-2.964 1.296-4.716 1.296zm.72-3.24c1.224 0 2.316-.288 3.276-.864a6.444 6.444 0 002.268-2.412c.552-1.032.828-2.184.828-3.456 0-1.296-.276-2.448-.828-3.456-.552-1.032-1.308-1.836-2.268-2.412-.96-.6-2.052-.9-3.276-.9-1.2 0-2.292.3-3.276.9-.96.576-1.728 1.38-2.304 2.412-.552 1.008-.828 2.16-.828 3.456 0 1.272.276 2.424.828 3.456a6.733 6.733 0 002.304 2.412c.984.576 2.076.864 3.276.864zm8.064 3.132c-.528 0-.972-.168-1.332-.504-.336-.36-.504-.804-.504-1.332v-5.508l.684-3.816 2.988 1.296V27.2c0 .528-.18.972-.54 1.332-.336.336-.768.504-1.296.504zm23.933 0c-.528 0-.972-.168-1.332-.504-.336-.36-.504-.804-.504-1.332v-8.856c0-1.368-.252-2.484-.756-3.348-.504-.864-1.188-1.5-2.052-1.908-.84-.432-1.812-.648-2.916-.648-1.008 0-1.92.204-2.736.612-.816.408-1.464.96-1.944 1.656-.48.672-.72 1.452-.72 2.34H44.64c0-1.512.36-2.856 1.08-4.032a8.017 8.017 0 013.024-2.844c1.272-.696 2.7-1.044 4.284-1.044 1.656 0 3.132.36 4.428 1.08 1.32.696 2.352 1.728 3.096 3.096.768 1.368 1.152 3.048 1.152 5.04V27.2c0 .528-.18.972-.54 1.332-.336.336-.768.504-1.296.504zm-14.796 0c-.528 0-.972-.168-1.332-.504-.336-.36-.504-.804-.504-1.332V11.144c0-.552.168-.996.504-1.332.36-.336.804-.504 1.332-.504.552 0 .996.168 1.332.504.336.336.504.78.504 1.332V27.2c0 .528-.168.972-.504 1.332-.336.336-.78.504-1.332.504zm31.631.108c-1.944 0-3.66-.42-5.148-1.26a9.568 9.568 0 01-3.528-3.528c-.84-1.512-1.26-3.24-1.26-5.184 0-1.968.42-3.696 1.26-5.184a9.226 9.226 0 013.528-3.528c1.488-.864 3.204-1.296 5.148-1.296 1.92 0 3.624.432 5.112 1.296a8.976 8.976 0 013.492 3.528c.864 1.488 1.296 3.216 1.296 5.184 0 1.944-.42 3.672-1.26 5.184a9.3 9.3 0 01-3.492 3.528c-1.488.84-3.204 1.26-5.148 1.26zm0-3.24c1.248 0 2.352-.288 3.312-.864a5.915 5.915 0 002.232-2.376c.552-1.008.828-2.172.828-3.492 0-1.32-.276-2.484-.828-3.492-.528-1.032-1.272-1.836-2.232-2.412-.96-.576-2.064-.864-3.312-.864-1.248 0-2.352.288-3.312.864-.96.576-1.716 1.38-2.268 2.412-.552 1.008-.828 2.172-.828 3.492 0 1.32.276 2.484.828 3.492a6.171 6.171 0 002.268 2.376c.96.576 2.064.864 3.312.864z" fill="#111"/></svg>